# xmcd
#
# Track frame offsets: 
#        150
#        22940
#        41680
#        64325
#
# Disc length: 1104 seconds
#
# Revision: 2
# Processed by: cddbd v1.5.2PL0 Copyright (c) Steve Scherf et al.
# Submitted via: ExactAudioCopy v1.0b3
#
DISCID=2d044e04
DTITLE=???? - ENJOY BAD DAYS, ENJOY GOOD DAYS
DYEAR=2000
DGENRE=JPop
TTITLE0=ENJOY BAD DAYS, ENJOY GOOD DAYS
TTITLE1=Wanna Be Your Melody
TTITLE2=ENJOY BAD DAYS, ENJOY GOOD DATS (TV mix)
TTITLE3=Wanna Be Your Melody (TV mix)
EXTD=YEAR: 2000
EXTT0=
EXTT1=
EXTT2=
EXTT3=
PLAYORDER=
